
<svg width="200px" height="65px" viewBox="0 0 200 65" version="1.1" xmlns="http://www.w3.org/2000/svg" xmlns:xlink="http://www.w3.org/1999/xlink">
    <!-- Generator: Sketch 46.2 (44496) - http://www.bohemiancoding.com/sketch -->
    <desc>Created with Sketch.</desc>
    <defs>
        <polygon id="path-1" points="20.4073196 22.6804124 0.321752577 22.6804124 0.321752577 0.961958763 20.4073196 0.961958763 20.4073196 22.6804124"></polygon>
        <polygon id="path-3" points="20.22 22.6804124 0.13443299 22.6804124 0.13443299 0.961958763 20.22 0.961958763 20.22 22.6804124"></polygon>
    </defs>
    <g id="Page-1" stroke="none" stroke-width="1" fill="none" fill-rule="evenodd">
        <g id="Registro" transform="translate(-87.000000, -65.000000)">
            <g id="Page-1" transform="translate(87.000000, 65.000000)">
                <path d="M16.0354639,25.5416495 C15.6272165,29.1540206 12.5395876,30.8127835 9.68391753,30.0808247 C5.99319588,29.134433 2.05195876,26.4643299 0.612783505,22.6364948 C-0.388247423,19.9725773 -0.277938144,17.3705155 1.81278351,15.3065979 C3.89525773,13.2529897 6.30556701,12.9880412 8.91690722,14.2426804 C12.5674227,15.9962887 16.377732,21.3591753 16.0354639,25.5416495" id="Fill-1" fill="#FFFFFF"></path>
                <path d="M17.8579381,9.98051546 C18.7115464,14.4619588 20.2569072,18.2062887 22.8816495,20.7763918 C24.6661856,22.5227835 30.174433,23.072268 32.3197938,19.0970103 C34.0826804,15.8289691 33.5548454,8.25886598 31.8929897,4.1928866 C30.8465979,1.63309278 27.7764948,-0.0648453608 24.4826804,0.271237113 C21.7115464,0.554742268 16.5002062,2.85164948 17.8579381,9.98051546" id="Fill-3" fill="#FFFFFF"></path>
                <path d="M55.1723711,9.98051546 C54.3187629,14.4619588 52.1239175,19.7403093 50.2228866,21.358866 C47.0950515,24.0238144 42.403299,22.9609278 40.7105155,19.0970103 C38.3538144,13.7145361 40.2868041,7.17226804 41.3228866,4.60938144 C42.5280412,1.62793814 45.803299,0.000103092784 48.4507216,0.000103092784 C51.0991753,0.000103092784 56.5301031,2.85164948 55.1723711,9.98051546" id="Fill-5" fill="#FFFFFF"></path>
                <path d="M61.7831959,30.2856701 C58.1512371,30.4423711 56.0347423,27.6485567 56.3151546,24.7135052 C56.6780412,20.9207216 58.7058763,16.6135052 62.2646392,14.5990722 C64.7409278,13.1970103 67.3285567,12.9031959 69.6914433,14.6495876 C72.0429897,16.387732 72.6780412,18.7279381 71.8429897,21.5021649 C70.6759794,25.3815464 65.967732,29.9763918 61.7831959,30.2856701" id="Fill-7" fill="#FFFFFF"></path>
                <path d="M36.9862887,64.5173196 C39.1893814,64.5173196 41.3161856,62.0626804 41.3161856,62.0626804 L46.2553608,57.0534021 L53.3543299,49.8564948 C53.3543299,49.8564948 58.2646392,45.44 58.2646392,39.025567 C58.2646392,33.2472165 54.367732,28.2750515 47.11,28.2750515 C39.8512371,28.2750515 38.3656701,32.1781443 36.9862887,32.1781443 L36.8924742,32.1781443 C35.5141237,32.1781443 34.0275258,28.2750515 26.7687629,28.2750515 C19.5110309,28.2750515 15.6141237,33.2472165 15.6141237,39.025567 C15.6141237,45.44 20.524433,49.8564948 20.524433,49.8564948 L27.6234021,57.0534021 L32.5625773,62.0626804 C32.5625773,62.0626804 34.6893814,64.5173196 36.8924742,64.5173196 L36.9862887,64.5173196 Z" id="Fill-9" fill="#FFFFFF"></path>
                <path d="M64.2418557,46.2917526 C64.2418557,44.5072165 65.722268,43.0257732 67.5068041,43.0257732 C69.3294845,43.0257732 70.8109278,44.5072165 70.8109278,46.2917526 L70.8109278,46.8237113 C71.8356701,44.8113402 73.9624742,42.9123711 77.4934021,42.9123711 C80.6830928,42.9123711 83.0748454,44.0896907 84.1758763,47.0134021 C85.3531959,44.6206186 87.48,42.9123711 90.9727835,42.9123711 C96.2501031,42.9123711 98.2635052,46.2154639 98.2635052,50.9618557 L98.2635052,60.7958763 C98.2635052,62.7329897 96.6686598,64.3278351 94.7315464,64.3278351 C92.7954639,64.3278351 91.2006186,62.7329897 91.2006186,60.7958763 L91.2006186,52.0247423 C91.2006186,48.8742268 89.4160825,48.2659794 88.2006186,48.2659794 C86.7583505,48.2659794 84.7841237,49.0257732 84.7841237,52.8989691 L84.7841237,60.7958763 C84.7841237,62.7329897 83.1892784,64.3278351 81.2521649,64.3278351 C79.3160825,64.3278351 77.7212371,62.7329897 77.7212371,60.7958763 L77.7212371,52.0247423 C77.7212371,48.8742268 75.936701,48.2659794 74.7212371,48.2659794 C73.2789691,48.2659794 71.3047423,49.0257732 71.3047423,52.8989691 L71.3047423,60.7958763 C71.3047423,62.7329897 69.7098969,64.3278351 67.7727835,64.3278351 C65.836701,64.3278351 64.2418557,62.7329897 64.2418557,60.7958763 L64.2418557,46.2917526 Z" id="Fill-11" fill="#FFFFFF"></path>
                <path d="M103.008351,46.5574227 C103.008351,44.6213402 104.603196,43.0264948 106.539278,43.0264948 C108.476392,43.0264948 110.071237,44.6213402 110.071237,46.5574227 L110.071237,60.7965979 C110.071237,62.7326804 108.476392,64.3275258 106.539278,64.3275258 C104.603196,64.3275258 103.008351,62.7326804 103.008351,60.7965979 L103.008351,46.5574227 Z M105.666082,34.4831959 L107.413505,34.4831959 C109.045464,34.4831959 110.37433,35.8120619 110.37433,37.4450515 C110.37433,39.0770103 109.045464,40.4058763 107.413505,40.4058763 L105.666082,40.4058763 C104.033093,40.4058763 102.704227,39.0770103 102.704227,37.4450515 C102.704227,35.8120619 104.033093,34.4831959 105.666082,34.4831959 L105.666082,34.4831959 Z" id="Fill-13" fill="#FFFFFF"></path>
                <path d="M126.05567,49.6710309 C128.979381,49.6710309 131.106186,48.5318557 131.106186,45.3803093 C131.106186,42.2287629 129.017526,40.9380412 126.093814,40.9380412 L122.676289,40.9380412 L122.676289,49.6710309 L126.05567,49.6710309 Z M115.385567,38.5834021 C115.385567,36.4957732 116.524742,35.3565979 118.613402,35.3565979 L127.118557,35.3565979 C133.687629,35.3565979 138.282474,38.9256701 138.282474,45.2669072 C138.282474,51.4174227 133.87732,55.2524742 127.080412,55.2524742 L122.676289,55.2524742 L122.676289,60.6823711 C122.676289,62.6947423 121.043299,64.327732 119.030928,64.327732 C117.018557,64.327732 115.385567,62.6947423 115.385567,60.6823711 L115.385567,38.5834021 Z" id="Fill-15" fill="#FFFFFF"></path>
                <g id="Group-19" transform="translate(139.175258, 41.836907)">
                    <mask id="mask-2" fill="white">
                        <use xlink:href="#path-1"></use>
                    </mask>
                    <g id="Clip-18"></g>
                    <path d="M9.70010309,18.1619588 C12.2815464,18.1619588 13.6485567,16.187732 13.6485567,13.7578351 L13.6485567,13.415567 L11.4083505,13.415567 C9.66195876,13.415567 7.23206186,13.7196907 7.23206186,15.9598969 C7.23206186,17.4021649 8.33309278,18.1619588 9.70010309,18.1619588 M11.0289691,9.65680412 L13.6104124,9.65680412 C13.6104124,7.45474227 13.3836082,5.97329897 10.7248454,5.97329897 C7.49804124,5.97329897 7.02175258,8.36608247 4.68773196,8.36608247 C3.01762887,8.36608247 1.65061856,7.30216495 1.65061856,5.59391753 C1.65061856,1.96092784 7.17329897,0.961958763 10.801134,0.961958763 C16.7619588,0.961958763 20.4073196,3.23927835 20.4073196,9.58051546 L20.4073196,19.1114433 C20.4073196,20.9341237 19.0021649,22.4908247 17.1423711,22.4908247 C15.4712371,22.4908247 14.1042268,21.2753608 13.8763918,19.6805155 C12.244433,21.9207216 10.1176289,22.6805155 7.38360825,22.6805155 C3.5485567,22.6805155 0.321752577,20.4403093 0.321752577,16.3774227 C0.321752577,10.3784536 6.32072165,9.65680412 11.0289691,9.65680412" id="Fill-17" fill="#FFFFFF" mask="url(#mask-2)"></path>
                </g>
                <path d="M164.517938,43.33 L165.80866,43.33 L165.961237,40.5207216 C166.036495,38.8495876 167.479794,37.4825773 169.188041,37.4825773 C170.972577,37.4825773 172.415876,38.9258763 172.415876,40.7104124 L172.415876,43.33 L174.656082,43.33 C175.946804,43.33 176.972577,44.3928866 176.972577,45.6464948 C176.972577,46.9372165 175.946804,48.0001031 174.656082,48.0001031 L172.567423,48.0001031 L172.567423,56.4681443 C172.567423,58.6320619 173.765361,59.0712371 174.617938,59.315567 C176.212784,59.7712371 177.351959,60.2650515 177.351959,61.5939175 C177.351959,64.4031959 174.594227,64.4794845 172.188041,64.4794845 C167.213814,64.4794845 165.505567,61.973299 165.54268,57.0753608 L165.580825,48.0001031 L164.517938,48.0001031 C163.227216,48.0001031 162.201443,46.9372165 162.201443,45.6846392 C162.201443,44.3928866 163.227216,43.33 164.517938,43.33" id="Fill-20" fill="#FFFFFF"></path>
                <g id="Group-24" transform="translate(179.381443, 41.836907)">
                    <mask id="mask-4" fill="white">
                        <use xlink:href="#path-3"></use>
                    </mask>
                    <g id="Clip-23"></g>
                    <path d="M9.51278351,18.1619588 C12.0952577,18.1619588 13.4612371,16.187732 13.4612371,13.7578351 L13.4612371,13.415567 L11.2210309,13.415567 C9.47463918,13.415567 7.04474227,13.7196907 7.04474227,15.9598969 C7.04474227,17.4021649 8.1457732,18.1619588 9.51278351,18.1619588 M10.8416495,9.65680412 L13.4241237,9.65680412 C13.4241237,7.45474227 13.1962887,5.97329897 10.5375258,5.97329897 C7.31072165,5.97329897 6.83443299,8.36608247 4.50041237,8.36608247 C2.83030928,8.36608247 1.46329897,7.30216495 1.46329897,5.59391753 C1.46329897,1.96092784 6.98597938,0.961958763 10.6138144,0.961958763 C16.5756701,0.961958763 20.22,3.23927835 20.22,9.58051546 L20.22,19.1114433 C20.22,20.9341237 18.8158763,22.4908247 16.9550515,22.4908247 C15.2839175,22.4908247 13.9179381,21.2753608 13.6890722,19.6805155 C12.0571134,21.9207216 9.93030928,22.6805155 7.19628866,22.6805155 C3.36123711,22.6805155 0.13443299,20.4403093 0.13443299,16.3774227 C0.13443299,10.3784536 6.13340206,9.65680412 10.8416495,9.65680412" id="Fill-22" fill="#FFFFFF" mask="url(#mask-4)"></path>
                </g>
            </g>
        </g>
    </g>
</svg>